<svg width="24" height="24" viewBox="0 0 24 24" fill="none" xmlns="http://www.w3.org/2000/svg">
    <path d="M7 21C7 21 8 19 10 18C12 17 12 15 12 15C12 15 11 13 9 12C7 11 7 9 7 9C7 9 8 7 10 6C12 5 12 3 12 3C12 3 11 1 9 0M17 21V19C17 17 18 16 20 16M17 13V11C17 9 18 8 20 8M17 5V3C17 1 18 0 20 0" stroke="#333333" stroke-width="2" stroke-linecap="round" stroke-linejoin="round"/>
    <path d="M5 21L5 15C5 13 6 12 8 12M5 12L5 6C5 4 6 3 8 3" stroke="#333333" stroke-width="2" stroke-linecap="round" stroke-linejoin="round"/>
    <path d="M12 21C12 21 11 19 9 18C7 17 7 15 7 15C7 15 8 13 10 12C12 11 12 9 12 9C12 9 11 7 9 6C7 5 7 3 7 3" stroke="#333333" stroke-width="2" stroke-linecap="round" stroke-linejoin="round"/>
</svg>