<svg width="24" height="24" viewBox="0 0 24 24" fill="none" xmlns="http://www.w3.org/2000/svg">
    <path d="M12 2C9.79086 2 8 3.79086 8 6C8 8.20914 9.79086 10 12 10C14.2091 10 16 8.20914 16 6C16 3.79086 14.2091 2 12 2Z" fill="#333333"/>
    <path d="M6 12C3.79086 12 2 13.7909 2 16C2 18.2091 3.79086 20 6 20C8.20914 20 10 18.2091 10 16C10 13.7909 8.20914 12 6 12Z" fill="#333333"/>
    <path d="M18 12C15.7909 12 14 13.7909 14 16C14 18.2091 15.7909 20 18 20C20.2091 20 22 18.2091 22 16C22 13.7909 20.2091 12 18 12Z" fill="#333333"/>
    <rect x="11" y="10" width="2" height="12" rx="1" fill="#333333"/>
</svg>